<svg width="32" height="32" viewBox="0 0 32 32" fill="none" xmlns="http://www.w3.org/2000/svg">
<path d="M27.3125 0H4.6875C2.10278 0 0 2.10278 0 4.6875V27.3125C0 29.8972 2.10278 32 4.6875 32H27.3125C29.8972 32 32 29.8972 32 27.3125V4.6875C32 2.10278 29.8972 0 27.3125 0ZM30.125 27.3125C30.125 28.8633 28.8633 30.125 27.3125 30.125H4.6875C3.13672 30.125 1.875 28.8633 1.875 27.3125V4.6875C1.875 3.13672 3.13672 1.875 4.6875 1.875H27.3125C28.8633 1.875 30.125 3.13672 30.125 4.6875V27.3125Z" fill="white"/>
<path d="M5.6875 26.375H11.3125V13.125H5.6875V26.375ZM7.5625 15H9.4375V24.5H7.5625V15Z" fill="white"/>
<path d="M20.6929 13.125C20.6912 13.125 20.6892 13.125 20.6875 13.125C20.0393 13.125 19.408 13.2334 18.8125 13.4438V13.125H13.1875V26.375H18.8125V19.6875C18.8125 19.1707 19.2332 18.75 19.75 18.75C20.2668 18.75 20.6875 19.1707 20.6875 19.6875V26.375H26.3125V19.043C26.3125 16.0088 23.8511 13.1279 20.6929 13.125ZM24.4375 24.5H22.5625V19.6875C22.5625 18.1367 21.3008 16.875 19.75 16.875C18.1992 16.875 16.9377 18.1367 16.9375 19.6873V24.5H15.0625V15H16.9375V16.8762L18.438 15.7493C19.0906 15.259 19.8684 15 20.6875 15H20.6912C22.6868 15.002 24.4375 16.8911 24.4375 19.043V24.5Z" fill="white"/>
<path d="M5.6875 11.25H11.3125V5.625H5.6875V11.25ZM7.5625 7.5H9.4375V9.375H7.5625V7.5Z" fill="white"/>
</svg>
