<svg width="32" height="32" viewBox="0 0 32 32" fill="none" xmlns="http://www.w3.org/2000/svg">
<path d="M0.630667 26.1267C3.59333 28.0067 7.04133 29 10.6013 29C15.8147 29 20.592 26.9973 24.0547 23.3613C27.368 19.8813 29.1907 15.2053 29.1 10.46C30.356 9.38534 31.8333 7.33334 31.8333 5.33334C31.8333 4.56667 31.0013 4.08001 30.3267 4.47067C29.1467 5.16401 28.0707 5.34534 26.964 5.03467C24.704 2.83201 21.34 2.36801 18.5053 3.89601C16.028 5.22934 14.6507 7.66934 14.7747 10.336C10.5893 9.82534 6.72267 7.72667 4.02667 4.46534C3.584 3.93334 2.744 3.99601 2.392 4.59867C1.09333 6.82267 1.10667 9.4 2.236 11.4813C1.69867 11.576 1.36667 12.028 1.36667 12.5173C1.36667 14.6093 2.308 16.532 3.824 17.844C3.54133 18.116 3.448 18.52 3.568 18.88C4.23467 20.8827 5.744 22.448 7.63067 23.232C5.57867 24.212 3.30933 24.5387 1.28933 24.2907C0.244 24.1493 -0.272 25.5547 0.630667 26.1267ZM10.8747 23.5747C11.6227 23 11.2253 21.8027 10.2867 21.7827C8.63333 21.748 7.128 20.9333 6.19067 19.652C6.64267 19.6227 7.11067 19.5533 7.556 19.4333C8.57067 19.1587 8.52267 17.6947 7.492 17.488C5.62133 17.112 4.15333 15.7493 3.60267 13.9947C4.10533 14.1187 4.61733 14.188 5.128 14.1973C6.14 14.2027 6.52267 12.9053 5.69733 12.3627C3.83733 11.1373 3.044 8.97334 3.56933 6.93867C6.81733 10.2293 11.224 12.212 15.8853 12.436C16.5533 12.4773 17.0547 11.8493 16.908 11.2133C16.2747 8.468 17.808 6.54401 19.4547 5.65734C21.084 4.77734 23.7 4.50267 25.7053 6.60667C26.3013 7.23467 28.312 7.25867 29.3347 7.02001C28.876 7.88401 28.1707 8.704 27.5107 9.16534C27.2293 9.36267 27.068 9.69067 27.0853 10.0333C27.3 14.4133 25.668 18.768 22.608 21.98C19.5253 25.216 15.2627 26.9987 10.6027 26.9987C8.74933 26.9987 6.932 26.6973 5.21467 26.116C7.268 25.7187 9.21867 24.8493 10.8747 23.5747Z" fill="white"/>
</svg>
